<svg width="32" height="32" viewBox="0 0 32 32" fill="none" xmlns="http://www.w3.org/2000/svg">
<rect width="32" height="32" rx="7.75892" fill="#F6FEF4"/>
<g clip-path="url(#clip0_301_800)">
<path d="M9.95054 12.8146H10.1505C10.9205 12.8146 11.5505 13.4446 11.5505 14.2146V21.2146C11.5505 21.9846 10.9205 22.6146 10.1505 22.6146H9.95054C9.18054 22.6146 8.55054 21.9846 8.55054 21.2146V14.2146C8.55054 13.4446 9.18054 12.8146 9.95054 12.8146ZM15.5505 8.61462C16.3205 8.61462 16.9505 9.24462 16.9505 10.0146V21.2146C16.9505 21.9846 16.3205 22.6146 15.5505 22.6146C14.7805 22.6146 14.1505 21.9846 14.1505 21.2146V10.0146C14.1505 9.24462 14.7805 8.61462 15.5505 8.61462ZM21.1505 16.6146C21.9205 16.6146 22.5505 17.2446 22.5505 18.0146V21.2146C22.5505 21.9846 21.9205 22.6146 21.1505 22.6146C20.3805 22.6146 19.7505 21.9846 19.7505 21.2146V18.0146C19.7505 17.2446 20.3805 16.6146 21.1505 16.6146Z" fill="#6572EB"/>
</g>
<defs>
<clipPath id="clip0_301_800">
<rect width="24" height="24" fill="white" transform="translate(3.55054 3.61462)"/>
</clipPath>
</defs>
</svg>
