<svg width="578" height="255" viewBox="0 0 578 255" fill="none" xmlns="http://www.w3.org/2000/svg">
<path d="M84.5928 72.9048C71.2867 83.2523 53.5451 74.342 46.3376 68.5934L3.09253 234.276L572.763 252.754C576.367 177.406 578.917 23.8774 560.289 12.5445C537.003 -1.62175 525.36 24.8629 521.202 32.8699C517.044 40.8769 502.906 47.0361 491.263 44.5724C479.62 42.1087 454.671 72.9048 437.206 80.2959C419.742 87.6869 395.625 47.0361 384.813 40.261C374.002 33.4859 364.854 48.2679 360.696 47.0361C356.538 45.8042 339.073 7.00116 326.599 7.61708C314.124 8.233 303.313 44.5724 294.165 40.261C285.017 35.9496 275.037 68.5934 244.267 90.1506C213.496 111.708 201.022 8.23303 184.389 3.30565C167.756 -1.62172 162.767 19.9355 146.134 40.261C129.501 60.5864 122.016 45.1883 117.027 40.261C112.037 35.3336 101.226 59.9705 84.5928 72.9048Z" fill="url(#paint0_linear_301_1078)"/>
<path d="M84.5928 72.9048C71.2867 83.2523 53.5451 74.342 46.3376 68.5934L3.09253 234.276L572.763 252.754C576.367 177.406 578.917 23.8774 560.289 12.5445C537.003 -1.62175 525.36 24.8629 521.202 32.8699C517.044 40.8769 502.906 47.0361 491.263 44.5724C479.62 42.1087 454.671 72.9048 437.206 80.2959C419.742 87.6869 395.625 47.0361 384.813 40.261C374.002 33.4859 364.854 48.2679 360.696 47.0361C356.538 45.8042 339.073 7.00116 326.599 7.61708C314.124 8.233 303.313 44.5724 294.165 40.261C285.017 35.9496 275.037 68.5934 244.267 90.1506C213.496 111.708 201.022 8.23303 184.389 3.30565C167.756 -1.62172 162.767 19.9355 146.134 40.261C129.501 60.5864 122.016 45.1883 117.027 40.261C112.037 35.3336 101.226 59.9705 84.5928 72.9048Z" stroke="#006EEA" stroke-width="4.44542" stroke-linecap="round" stroke-linejoin="round"/>
<defs>
<linearGradient id="paint0_linear_301_1078" x1="317.295" y1="-31.2441" x2="317.295" y2="247.92" gradientUnits="userSpaceOnUse">
<stop stop-color="#F3F0FF"/>
<stop offset="1" stop-color="#F1EDFF" stop-opacity="0"/>
</linearGradient>
</defs>
</svg>
