<svg width="518" height="228" viewBox="0 0 518 228" fill="none" xmlns="http://www.w3.org/2000/svg">
<path d="M75.1268 64.2659C63.1538 73.5766 47.1899 65.5591 40.7045 60.3865L1.79248 209.469L514.384 226.095C517.627 158.297 519.922 20.1509 503.159 9.95346C482.207 -2.79334 471.73 21.0376 467.989 28.2423C464.247 35.4471 451.526 40.9891 441.05 38.7723C430.573 36.5555 408.124 64.2659 392.41 70.9164C376.695 77.5669 354.994 40.9891 345.266 34.8929C335.538 28.7966 327.307 42.0976 323.565 40.9891C319.824 39.8807 304.109 4.96558 292.885 5.51979C281.66 6.074 271.932 38.7723 263.701 34.8929C255.469 31.0135 246.489 60.3865 218.802 79.7838C191.115 99.181 179.89 6.07402 164.924 1.64035C149.958 -2.79332 145.468 16.604 130.502 34.8929C115.535 53.1818 108.801 39.3265 104.311 34.8929C99.8209 30.4592 90.0929 52.6276 75.1268 64.2659Z" fill="url(#paint0_linear_301_792)" stroke="#4318FF" stroke-width="2" stroke-linecap="round" stroke-linejoin="round"/>
<path d="M75.1268 64.2659C63.1538 73.5766 47.1899 65.5591 40.7045 60.3865L1.79248 209.469L514.384 226.095C517.627 158.297 519.922 20.1509 503.159 9.95346C482.207 -2.79334 471.73 21.0376 467.989 28.2423C464.247 35.4471 451.526 40.9891 441.05 38.7723C430.573 36.5555 408.124 64.2659 392.41 70.9164C376.695 77.5669 354.994 40.9891 345.266 34.8929C335.538 28.7966 327.307 42.0976 323.565 40.9891C319.824 39.8807 304.109 4.96558 292.885 5.51979C281.66 6.074 271.932 38.7723 263.701 34.8929C255.469 31.0135 246.489 60.3865 218.802 79.7838C191.115 99.181 179.89 6.07402 164.924 1.64035C149.958 -2.79332 145.468 16.604 130.502 34.8929C115.535 53.1818 108.801 39.3265 104.311 34.8929C99.8209 30.4592 90.0929 52.6276 75.1268 64.2659Z" stroke="#0097FE" stroke-width="2" stroke-linecap="round" stroke-linejoin="round"/>
<defs>
<linearGradient id="paint0_linear_301_792" x1="259.959" y1="-20.6141" x2="259.959" y2="181.204" gradientUnits="userSpaceOnUse">
<stop stop-color="#6572EB" stop-opacity="0.16"/>
<stop offset="0.72165" stop-color="#6572EB" stop-opacity="0"/>
</linearGradient>
</defs>
</svg>
