<svg width="137" height="137" viewBox="0 0 137 137" fill="none" xmlns="http://www.w3.org/2000/svg">
<path d="M68.0171 132.581C59.5745 132.581 51.2143 130.918 43.4141 127.687C35.614 124.456 28.5268 119.72 22.5569 113.751C16.5871 107.781 11.8515 100.694 8.62032 92.8934C5.38952 85.0933 3.72656 76.7334 3.72656 68.2904C3.72656 59.8478 5.38952 51.4876 8.62032 43.6878C11.8515 35.8877 16.5871 28.8001 22.5569 22.8303C28.5268 16.8604 35.614 12.1248 43.4141 8.894C51.2143 5.6632 59.5745 4.00024 68.0171 4.00024C76.4597 4.00024 84.8199 5.6632 92.6201 8.894C100.42 12.1248 107.507 16.8604 113.477 22.8303C119.447 28.8001 124.183 35.8877 127.414 43.6878C130.645 51.4876 132.308 59.8478 132.308 68.2904C132.308 76.7334 130.645 85.0933 127.414 92.8934C124.183 100.694 119.447 107.781 113.477 113.751C107.507 119.72 100.42 124.456 92.6201 127.687C84.8199 130.918 76.4597 132.581 68.0171 132.581Z" stroke="#EDF1FC" stroke-width="7.41536" stroke-linecap="round"/>
<path d="M68.0169 132.581C53.8126 132.581 40.008 127.877 28.7594 119.203C17.5108 110.53 9.45106 98.3751 5.83948 84.6375C2.2279 70.8999 3.26737 56.3532 8.79552 43.2687C14.324 30.1841 24.0298 19.299 36.3975 12.3129C48.7652 5.32718 63.0985 2.63356 77.1584 4.65334C91.2183 6.67312 104.214 13.2922 114.115 23.4774C124.016 33.6622 130.265 46.8394 131.887 60.9507C133.509 75.0624 130.411 89.3136 123.079 101.479" stroke="#FFAE00" stroke-width="7.41536" stroke-linecap="round"/>
</svg>
