<svg width="235" height="236" viewBox="0 0 235 236" fill="none" xmlns="http://www.w3.org/2000/svg">
<path d="M117.572 231.696C102.657 231.696 87.8891 228.758 74.1099 223.051C60.3312 217.343 47.8109 208.978 37.2652 198.432C26.7191 187.886 18.3538 175.366 12.6461 161.587C6.93889 147.808 4.00146 133.04 4.00146 118.125C4.00146 103.211 6.93889 88.443 12.6461 74.6643C18.3538 60.8851 26.7191 48.3654 37.2652 37.8192C47.8114 27.2735 60.3312 18.9078 74.1099 13.2005C87.8891 7.49285 102.657 4.55542 117.572 4.55542C132.486 4.55542 147.254 7.49285 161.033 13.2005C174.812 18.9078 187.332 27.2735 197.878 37.8192C208.424 48.3654 216.791 60.8851 222.496 74.6643C228.205 88.443 231.143 103.211 231.143 118.125C231.143 133.04 228.205 147.808 222.496 161.587C216.787 175.366 208.424 187.886 197.878 198.432C187.332 208.978 174.812 217.343 161.033 223.051C147.254 228.758 132.486 231.696 117.572 231.696Z" stroke="#F0F3FF" stroke-width="7.41536" stroke-linecap="round"/>
<path d="M117.572 231.696C100.748 231.696 84.1349 227.958 68.9328 220.753C53.7302 213.548 40.3182 203.056 29.6662 190.034C19.0141 177.012 11.3882 161.787 7.33965 145.458C3.29061 129.129 2.92024 112.105 6.25464 95.6152C9.58904 79.1257 16.5453 63.5829 26.6206 50.1101C36.6959 36.6373 49.6388 25.5712 64.5133 17.7115C79.3879 9.85176 95.8229 5.39493 112.63 4.66316C129.438 3.93094 146.198 6.94227 161.699 13.479" stroke="#0097FE" stroke-width="7.41536" stroke-linecap="round"/>
</svg>
