<svg width="183" height="183" viewBox="0 0 183 183" fill="none" xmlns="http://www.w3.org/2000/svg">
<path d="M91.2395 179.026C79.7471 179.026 68.3674 176.762 57.7497 172.364C47.1324 167.966 37.485 161.52 29.3585 153.394C21.2323 145.267 14.7861 135.62 10.3883 125.002C5.99051 114.385 3.72656 103.005 3.72656 91.5126C3.72656 80.0205 5.99051 68.6404 10.3883 58.0231C14.7861 47.4055 21.2323 37.7581 29.3585 29.6319C37.485 21.5057 47.1324 15.0595 57.7497 10.6613C68.3674 6.26353 79.7471 4 91.2395 4C102.732 4 114.112 6.26353 124.729 10.6613C135.347 15.0595 144.994 21.5057 153.12 29.6319C161.247 37.7581 167.693 47.4055 172.09 58.0231C176.488 68.6408 178.751 80.0205 178.751 91.513C178.751 103.005 176.488 114.385 172.09 125.002C167.693 135.62 161.247 145.267 153.12 153.394C144.994 161.52 135.347 167.966 124.729 172.364C114.112 176.762 102.732 179.026 91.2395 179.026Z" stroke="#F0F3FF" stroke-width="7.41536" stroke-linecap="round"/>
<path d="M91.2395 179.026C76.4649 179.026 61.9308 175.285 48.9916 168.152C36.0528 161.02 25.1302 150.727 17.2425 138.234C9.35437 125.741 4.75804 111.455 3.88082 96.7066C3.004 81.9578 5.87571 67.2275 12.2277 53.888C18.5797 40.5484 28.2058 29.0346 40.2085 20.4191C52.2113 11.8035 66.1997 6.36705 80.8704 4.61663C95.5406 2.86582 110.416 4.85788 124.109 10.4072C137.801 15.9564 149.867 24.8821 159.179 36.3524" stroke="#AC5FE6" stroke-width="7.41536" stroke-linecap="round"/>
</svg>
