<svg width="61" height="62" viewBox="0 0 61 62" fill="none" xmlns="http://www.w3.org/2000/svg">
<path d="M33.7345 6.36533C28.0149 5.14959 22.0572 5.77576 16.7154 8.15411C11.3735 10.5325 6.92169 14.5409 3.99799 19.6049C1.07429 24.6689 -0.171204 30.5285 0.440014 36.3438C1.05123 42.1592 3.48779 47.6318 7.40046 51.9773C11.3131 56.3227 16.5011 59.318 22.2207 60.5337C27.9403 61.7495 33.898 61.1233 39.2398 58.7449C44.5817 56.3666 49.0335 52.3582 51.9572 47.2942C54.8809 42.2302 56.1264 36.3706 55.5152 30.5552L27.9776 33.4495L33.7345 6.36533Z" fill="#0097FE"/>
<path d="M37.3722 1.08717C43.5318 2.39643 49.1188 5.62208 53.3325 10.3018C57.5461 14.9815 60.1701 20.8751 60.8283 27.1378L31.1725 30.2548L37.3722 1.08717Z" fill="#FFAE00"/>
</svg>
