<svg width="31" height="31" viewBox="0 0 31 31" fill="none" xmlns="http://www.w3.org/2000/svg">
<path d="M15.5407 30.0535C23.8397 30.0535 30.5674 23.3258 30.5674 15.0267C30.5674 6.7277 23.8397 0 15.5407 0C7.24162 0 0.513916 6.7277 0.513916 15.0267C0.513916 23.3258 7.24162 30.0535 15.5407 30.0535Z" fill="#EBF7FF"/>
<path fill-rule="evenodd" clip-rule="evenodd" d="M22.0064 11.0921C22.0049 11.0387 21.9893 10.9883 21.9752 10.9371C21.9641 10.8941 21.9589 10.8504 21.9404 10.8111C21.9234 10.7725 21.8944 10.7414 21.8692 10.7058C21.8381 10.6606 21.8099 10.6154 21.7699 10.5783C21.7632 10.5717 21.7603 10.5628 21.7529 10.5568C21.7262 10.5338 21.6935 10.5257 21.6646 10.5072C21.6202 10.4782 21.5764 10.4486 21.526 10.4293C21.4763 10.4115 21.4274 10.4071 21.3763 10.3997C21.3407 10.3945 21.3088 10.3782 21.271 10.3782H17.5645C17.1545 10.3782 16.8232 10.7103 16.8232 11.1195C16.8232 11.5287 17.1545 11.8608 17.5645 11.8608H19.6594L16.6675 15.3508L13.4977 13.4494C13.1841 13.2596 12.7808 13.3293 12.5466 13.6103L8.84007 18.0581C8.57839 18.3724 8.62064 18.8402 8.93495 19.1018C9.07432 19.2175 9.24185 19.2738 9.40939 19.2738C9.62214 19.2738 9.83267 19.1834 9.97945 19.007L13.2797 15.0469L16.4414 16.9446C16.752 17.1307 17.1508 17.0655 17.3858 16.7912L20.5297 13.1232V14.826C20.5297 15.2352 20.8611 15.5673 21.271 15.5673C21.6809 15.5673 22.0123 15.2352 22.0123 14.826V11.1195C22.0123 11.1098 22.0071 11.1017 22.0064 11.0921Z" fill="#231F20"/>
<mask id="mask0_301_929" style="mask-type:luminance" maskUnits="userSpaceOnUse" x="8" y="10" width="15" height="10">
<path fill-rule="evenodd" clip-rule="evenodd" d="M22.0064 11.0921C22.0049 11.0387 21.9893 10.9883 21.9752 10.9371C21.9641 10.8941 21.9589 10.8504 21.9404 10.8111C21.9234 10.7725 21.8944 10.7414 21.8692 10.7058C21.8381 10.6606 21.8099 10.6154 21.7699 10.5783C21.7632 10.5717 21.7603 10.5628 21.7529 10.5568C21.7262 10.5338 21.6935 10.5257 21.6646 10.5072C21.6202 10.4782 21.5764 10.4486 21.526 10.4293C21.4763 10.4115 21.4274 10.4071 21.3763 10.3997C21.3407 10.3945 21.3088 10.3782 21.271 10.3782H17.5645C17.1545 10.3782 16.8232 10.7103 16.8232 11.1195C16.8232 11.5287 17.1545 11.8608 17.5645 11.8608H19.6594L16.6675 15.3508L13.4977 13.4494C13.1841 13.2596 12.7808 13.3293 12.5466 13.6103L8.84007 18.0581C8.57839 18.3724 8.62064 18.8402 8.93495 19.1018C9.07432 19.2175 9.24185 19.2738 9.40939 19.2738C9.62214 19.2738 9.83267 19.1834 9.97945 19.007L13.2797 15.0469L16.4414 16.9446C16.752 17.1307 17.1508 17.0655 17.3858 16.7912L20.5297 13.1232V14.826C20.5297 15.2352 20.8611 15.5673 21.271 15.5673C21.6809 15.5673 22.0123 15.2352 22.0123 14.826V11.1195C22.0123 11.1098 22.0071 11.1017 22.0064 11.0921Z" fill="white"/>
</mask>
<g mask="url(#mask0_301_929)">
<rect x="6.44482" y="5.93042" width="17.7913" height="17.7913" fill="#0097FE"/>
</g>
</svg>
