<svg width="32" height="32" viewBox="0 0 32 32" fill="none" xmlns="http://www.w3.org/2000/svg">
<path fill-rule="evenodd" clip-rule="evenodd" d="M23.327 18.6408C22.439 21.4968 20.2256 23.4741 17.2803 23.9101C12.7856 24.5755 8.37229 21.1675 8.02295 16.6341C7.66029 11.9301 11.371 8.00081 16.0016 8.00081C17.0723 8.00081 18.0936 8.21148 19.027 8.59281C19.351 8.72481 19.7176 8.61148 19.883 8.30481L21.7963 4.77548C21.9776 4.43815 21.847 4.00348 21.4976 3.84615C19.8216 3.08881 17.963 2.66748 16.0056 2.66748C8.50962 2.66748 2.45762 8.84881 2.67229 16.3915C2.86829 23.2728 8.54829 29.0301 15.4243 29.3221C22.819 29.6341 28.9523 23.9275 29.3243 16.6968C29.339 16.4328 29.3336 14.8955 29.3283 13.9941C29.327 13.6261 29.0283 13.3341 28.6616 13.3341H16.663C16.295 13.3341 15.9963 13.6315 15.9963 14.0008V17.9741C15.9963 18.3408 16.295 18.6408 16.663 18.6408H23.327Z" fill="#03133D"/>
<mask id="mask0_1304_196" style="mask-type:luminance" maskUnits="userSpaceOnUse" x="2" y="2" width="28" height="28">
<path fill-rule="evenodd" clip-rule="evenodd" d="M23.327 18.6408C22.439 21.4968 20.2256 23.4741 17.2803 23.9101C12.7856 24.5755 8.37229 21.1675 8.02295 16.6341C7.66029 11.9301 11.371 8.00081 16.0016 8.00081C17.0723 8.00081 18.0936 8.21148 19.027 8.59281C19.351 8.72481 19.7176 8.61148 19.883 8.30481L21.7963 4.77548C21.9776 4.43815 21.847 4.00348 21.4976 3.84615C19.8216 3.08881 17.963 2.66748 16.0056 2.66748C8.50962 2.66748 2.45762 8.84881 2.67229 16.3915C2.86829 23.2728 8.54829 29.0301 15.4243 29.3221C22.819 29.6341 28.9523 23.9275 29.3243 16.6968C29.339 16.4328 29.3336 14.8955 29.3283 13.9941C29.327 13.6261 29.0283 13.3341 28.6616 13.3341H16.663C16.295 13.3341 15.9963 13.6315 15.9963 14.0008V17.9741C15.9963 18.3408 16.295 18.6408 16.663 18.6408H23.327Z" fill="white"/>
</mask>
<g mask="url(#mask0_1304_196)">
<rect width="32" height="32" fill="white"/>
</g>
</svg>
