<svg width="40" height="40" viewBox="0 0 40 40" fill="none" xmlns="http://www.w3.org/2000/svg">
<circle cx="20" cy="20" r="20" fill="#F6F7FE"/>
<rect x="8" y="8" width="24" height="24" rx="8" fill="#3A5794"/>
<path d="M22.5604 26.5141L22.5604 21.7374L24.1601 21.7374L24.3995 19.8805L22.5604 19.8805L22.5604 18.6956C22.5604 18.158 22.7099 17.7911 23.4806 17.7911L24.4639 17.7911L24.4639 16.1303C23.9879 16.0798 23.5095 16.0553 23.0308 16.057C21.6134 16.057 20.6431 16.9223 20.6431 18.5118L20.6431 19.8805L19.0399 19.8805L19.0399 21.7374L20.6431 21.7374L20.6431 26.5141L14.7419 26.5141C14.56 26.5141 14.3856 26.4418 14.257 26.3132C14.1284 26.1846 14.0562 26.0102 14.0562 25.8284L14.0562 14.857C14.0562 14.6751 14.1284 14.5007 14.257 14.3721C14.3856 14.2435 14.56 14.1713 14.7419 14.1713L25.7133 14.1713C25.8951 14.1713 26.0696 14.2435 26.1982 14.3721C26.3268 14.5007 26.399 14.6751 26.399 14.857L26.399 25.8284C26.399 26.0102 26.3268 26.1846 26.1982 26.3132C26.0696 26.4418 25.8951 26.5141 25.7133 26.5141L22.5604 26.5141Z" fill="white"/>
</svg>
