<svg width="32" height="32" viewBox="0 0 32 32" fill="none" xmlns="http://www.w3.org/2000/svg">
<path fill-rule="evenodd" clip-rule="evenodd" d="M22.6667 4.66667C22.6667 4.29867 22.3667 4 22 4H18.6667C14.984 4 12 6.68667 12 10V13.6H8.66667C8.29867 13.6 8 13.8987 8 14.2667V17.7333C8 18.1013 8.29867 18.4 8.66667 18.4H12V27.3333C12 27.7013 12.2987 28 12.6667 28H16.6667C17.0333 28 17.3333 27.7013 17.3333 27.3333V18.4H20.8253C21.1253 18.4 21.388 18.2 21.4693 17.912L22.4307 14.4453C22.5493 14.0213 22.2293 13.6 21.7893 13.6H17.3333V10C17.3333 9.33733 17.9293 8.8 18.6667 8.8H22C22.3667 8.8 22.6667 8.50133 22.6667 8.13333V4.66667Z" fill="#03133D"/>
<mask id="mask0_1304_184" style="mask-type:luminance" maskUnits="userSpaceOnUse" x="8" y="4" width="15" height="24">
<path fill-rule="evenodd" clip-rule="evenodd" d="M22.6667 4.66667C22.6667 4.29867 22.3667 4 22 4H18.6667C14.984 4 12 6.68667 12 10V13.6H8.66667C8.29867 13.6 8 13.8987 8 14.2667V17.7333C8 18.1013 8.29867 18.4 8.66667 18.4H12V27.3333C12 27.7013 12.2987 28 12.6667 28H16.6667C17.0333 28 17.3333 27.7013 17.3333 27.3333V18.4H20.8253C21.1253 18.4 21.388 18.2 21.4693 17.912L22.4307 14.4453C22.5493 14.0213 22.2293 13.6 21.7893 13.6H17.3333V10C17.3333 9.33733 17.9293 8.8 18.6667 8.8H22C22.3667 8.8 22.6667 8.50133 22.6667 8.13333V4.66667Z" fill="white"/>
</mask>
<g mask="url(#mask0_1304_184)">
<rect width="32" height="32" fill="white"/>
</g>
</svg>
