<svg width="56" height="56" viewBox="0 0 56 56" fill="none" xmlns="http://www.w3.org/2000/svg">
<circle cx="28" cy="28" r="28" fill="#F6F7FE"/>
<g clip-path="url(#clip0_301_863)">
<path d="M20.5334 24.2667H20.8001C21.8267 24.2667 22.6667 25.1067 22.6667 26.1334V35.4667C22.6667 36.4934 21.8267 37.3334 20.8001 37.3334H20.5334C19.5067 37.3334 18.6667 36.4934 18.6667 35.4667V26.1334C18.6667 25.1067 19.5067 24.2667 20.5334 24.2667ZM28.0001 18.6667C29.0267 18.6667 29.8667 19.5067 29.8667 20.5334V35.4667C29.8667 36.4934 29.0267 37.3334 28.0001 37.3334C26.9734 37.3334 26.1334 36.4934 26.1334 35.4667V20.5334C26.1334 19.5067 26.9734 18.6667 28.0001 18.6667ZM35.4667 29.3334C36.4934 29.3334 37.3334 30.1734 37.3334 31.2V35.4667C37.3334 36.4934 36.4934 37.3334 35.4667 37.3334C34.4401 37.3334 33.6001 36.4934 33.6001 35.4667V31.2C33.6001 30.1734 34.4401 29.3334 35.4667 29.3334Z" fill="#0097FE"/>
</g>
<defs>
<clipPath id="clip0_301_863">
<rect width="32" height="32" fill="white" transform="translate(12 12)"/>
</clipPath>
</defs>
</svg>
