<svg width="48" height="48" viewBox="0 0 48 48" fill="none" xmlns="http://www.w3.org/2000/svg">
<path fill-rule="evenodd" clip-rule="evenodd" d="M34.9903 27.961C33.6583 32.245 30.3383 35.211 25.9203 35.865C19.1783 36.863 12.5583 31.751 12.0343 24.951C11.4903 17.895 17.0563 12.001 24.0023 12.001C25.6083 12.001 27.1403 12.317 28.5403 12.889C29.0263 13.087 29.5763 12.917 29.8243 12.457L32.6943 7.16298C32.9663 6.65698 32.7703 6.00498 32.2463 5.76898C29.7323 4.63298 26.9443 4.00098 24.0083 4.00098C12.7643 4.00098 3.68631 13.273 4.00831 24.587C4.30231 34.909 12.8223 43.545 23.1363 43.983C34.2283 44.451 43.4283 35.891 43.9863 25.045C44.0083 24.649 44.0003 22.343 43.9923 20.991C43.9903 20.439 43.5423 20.001 42.9923 20.001H24.9943C24.4423 20.001 23.9943 20.447 23.9943 21.001V26.961C23.9943 27.511 24.4423 27.961 24.9943 27.961H34.9903Z" fill="#03133D"/>
<mask id="mask0_1304_37" style="mask-type:luminance" maskUnits="userSpaceOnUse" x="4" y="4" width="41" height="41">
<path fill-rule="evenodd" clip-rule="evenodd" d="M34.9903 27.961C33.6583 32.245 30.3383 35.211 25.9203 35.865C19.1783 36.863 12.5583 31.751 12.0343 24.951C11.4903 17.895 17.0563 12.001 24.0023 12.001C25.6083 12.001 27.1403 12.317 28.5403 12.889C29.0263 13.087 29.5763 12.917 29.8243 12.457L32.6943 7.16298C32.9663 6.65698 32.7703 6.00498 32.2463 5.76898C29.7323 4.63298 26.9443 4.00098 24.0083 4.00098C12.7643 4.00098 3.68631 13.273 4.00831 24.587C4.30231 34.909 12.8223 43.545 23.1363 43.983C34.2283 44.451 43.4283 35.891 43.9863 25.045C44.0083 24.649 44.0003 22.343 43.9923 20.991C43.9903 20.439 43.5423 20.001 42.9923 20.001H24.9943C24.4423 20.001 23.9943 20.447 23.9943 21.001V26.961C23.9943 27.511 24.4423 27.961 24.9943 27.961H34.9903Z" fill="white"/>
</mask>
<g mask="url(#mask0_1304_37)">
<rect width="48" height="48" fill="white"/>
</g>
</svg>
