<svg width="32" height="32" viewBox="0 0 32 32" fill="none" xmlns="http://www.w3.org/2000/svg">
<path fill-rule="evenodd" clip-rule="evenodd" d="M10.7692 26.6672C20.4306 26.6672 26.0199 19.1659 26.0199 12.0472C26.0199 11.8512 27.3932 10.6725 27.9812 8.2152C28.1012 7.71653 27.6159 7.3232 27.1586 7.53253C25.9852 8.0712 24.7946 7.64453 24.2772 7.0312C22.2879 4.86186 18.9612 4.75786 16.8452 6.79786C15.4812 8.11386 14.9026 10.0739 15.3252 11.9445C10.8572 12.2632 7.78924 10.1459 5.26657 7.2432C4.94124 6.86586 4.33724 7.06453 4.26924 7.5632C3.89591 10.3392 3.77858 17.0885 10.4666 20.9645C9.30524 22.6339 7.03191 23.6192 4.50124 24.0419C3.94124 24.1365 3.80791 24.9125 4.31991 25.1632C6.32524 26.1499 8.52924 26.6659 10.7692 26.6632" fill="#03133D"/>
<mask id="mask0_1304_190" style="mask-type:luminance" maskUnits="userSpaceOnUse" x="4" y="5" width="24" height="22">
<path fill-rule="evenodd" clip-rule="evenodd" d="M10.7692 26.6672C20.4306 26.6672 26.0199 19.1659 26.0199 12.0472C26.0199 11.8512 27.3932 10.6725 27.9812 8.2152C28.1012 7.71653 27.6159 7.3232 27.1586 7.53253C25.9852 8.0712 24.7946 7.64453 24.2772 7.0312C22.2879 4.86186 18.9612 4.75786 16.8452 6.79786C15.4812 8.11386 14.9026 10.0739 15.3252 11.9445C10.8572 12.2632 7.78924 10.1459 5.26657 7.2432C4.94124 6.86586 4.33724 7.06453 4.26924 7.5632C3.89591 10.3392 3.77858 17.0885 10.4666 20.9645C9.30524 22.6339 7.03191 23.6192 4.50124 24.0419C3.94124 24.1365 3.80791 24.9125 4.31991 25.1632C6.32524 26.1499 8.52924 26.6659 10.7692 26.6632" fill="white"/>
</mask>
<g mask="url(#mask0_1304_190)">
<rect width="32" height="32" fill="white"/>
</g>
</svg>
