<svg width="32" height="33" viewBox="0 0 32 33" fill="none" xmlns="http://www.w3.org/2000/svg">
<path fill-rule="evenodd" clip-rule="evenodd" d="M27.9897 9.78388C27.9871 9.68788 27.9591 9.59721 27.9338 9.50521C27.9137 9.42788 27.9044 9.34921 27.8711 9.27854C27.8404 9.20921 27.7884 9.15321 27.7431 9.08921C27.6871 9.00788 27.6364 8.92654 27.5644 8.85988C27.5524 8.84788 27.5471 8.83188 27.5338 8.82121C27.4858 8.77988 27.4271 8.76521 27.3751 8.73188C27.2951 8.67988 27.2164 8.62654 27.1258 8.59188C27.0364 8.55988 26.9484 8.55188 26.8564 8.53854C26.7924 8.52921 26.7351 8.49988 26.6671 8.49988H20.0004C19.2631 8.49988 18.6671 9.09721 18.6671 9.83321C18.6671 10.5692 19.2631 11.1665 20.0004 11.1665H23.7684L18.3871 17.4439L12.6858 14.0239C12.1217 13.6825 11.3964 13.8079 10.9751 14.3132L4.30842 22.3132C3.83775 22.8785 3.91375 23.7199 4.47908 24.1905C4.72975 24.3985 5.03108 24.4999 5.33242 24.4999C5.71508 24.4999 6.09375 24.3372 6.35775 24.0199L12.2937 16.8972L17.9804 20.3105C18.5391 20.6452 19.2564 20.5279 19.6791 20.0345L25.3338 13.4372V16.4999C25.3338 17.2359 25.9298 17.8332 26.6671 17.8332C27.4044 17.8332 28.0004 17.2359 28.0004 16.4999V9.83321C28.0004 9.81588 27.9911 9.80121 27.9897 9.78388Z" fill="#03133D"/>
<mask id="mask0_301_1005" style="mask-type:luminance" maskUnits="userSpaceOnUse" x="3" y="8" width="26" height="17">
<path fill-rule="evenodd" clip-rule="evenodd" d="M27.9897 9.78388C27.9871 9.68788 27.9591 9.59721 27.9338 9.50521C27.9137 9.42788 27.9044 9.34921 27.8711 9.27854C27.8404 9.20921 27.7884 9.15321 27.7431 9.08921C27.6871 9.00788 27.6364 8.92654 27.5644 8.85988C27.5524 8.84788 27.5471 8.83188 27.5338 8.82121C27.4858 8.77988 27.4271 8.76521 27.3751 8.73188C27.2951 8.67988 27.2164 8.62654 27.1258 8.59188C27.0364 8.55988 26.9484 8.55188 26.8564 8.53854C26.7924 8.52921 26.7351 8.49988 26.6671 8.49988H20.0004C19.2631 8.49988 18.6671 9.09721 18.6671 9.83321C18.6671 10.5692 19.2631 11.1665 20.0004 11.1665H23.7684L18.3871 17.4439L12.6858 14.0239C12.1217 13.6825 11.3964 13.8079 10.9751 14.3132L4.30842 22.3132C3.83775 22.8785 3.91375 23.7199 4.47908 24.1905C4.72975 24.3985 5.03108 24.4999 5.33242 24.4999C5.71508 24.4999 6.09375 24.3372 6.35775 24.0199L12.2937 16.8972L17.9804 20.3105C18.5391 20.6452 19.2564 20.5279 19.6791 20.0345L25.3338 13.4372V16.4999C25.3338 17.2359 25.9298 17.8332 26.6671 17.8332C27.4044 17.8332 28.0004 17.2359 28.0004 16.4999V9.83321C28.0004 9.81588 27.9911 9.80121 27.9897 9.78388Z" fill="white"/>
</mask>
<g mask="url(#mask0_301_1005)">
<rect y="0.5" width="32" height="32" fill="white"/>
</g>
</svg>
