<svg width="56" height="56" viewBox="0 0 56 56" fill="none" xmlns="http://www.w3.org/2000/svg">
<circle cx="28" cy="28" r="28" fill="#F6F7FE"/>
<path fill-rule="evenodd" clip-rule="evenodd" d="M39.9895 21.2838C39.9868 21.1878 39.9588 21.0972 39.9335 21.0052C39.9135 20.9278 39.9042 20.8492 39.8708 20.7785C39.8402 20.7092 39.7882 20.6532 39.7428 20.5892C39.6868 20.5078 39.6362 20.4265 39.5642 20.3598C39.5522 20.3478 39.5468 20.3318 39.5335 20.3212C39.4855 20.2798 39.4268 20.2652 39.3748 20.2318C39.2948 20.1798 39.2162 20.1265 39.1255 20.0918C39.0362 20.0598 38.9482 20.0518 38.8562 20.0385C38.7922 20.0292 38.7348 19.9998 38.6668 19.9998H32.0002C31.2628 19.9998 30.6668 20.5972 30.6668 21.3332C30.6668 22.0692 31.2628 22.6665 32.0002 22.6665H35.7682L30.3868 28.9439L24.6855 25.5238C24.1215 25.1825 23.3962 25.3078 22.9748 25.8132L16.3082 33.8132C15.8375 34.3785 15.9135 35.2199 16.4788 35.6905C16.7295 35.8985 17.0308 35.9999 17.3322 35.9999C17.7148 35.9999 18.0935 35.8372 18.3575 35.5199L24.2935 28.3972L29.9802 31.8105C30.5388 32.1452 31.2562 32.0279 31.6788 31.5345L37.3335 24.9372V27.9999C37.3335 28.7359 37.9295 29.3332 38.6668 29.3332C39.4042 29.3332 40.0002 28.7359 40.0002 27.9999V21.3332C40.0002 21.3158 39.9908 21.3012 39.9895 21.2838Z" fill="#03133D"/>
<mask id="mask0_301_853" style="mask-type:luminance" maskUnits="userSpaceOnUse" x="15" y="19" width="26" height="17">
<path fill-rule="evenodd" clip-rule="evenodd" d="M39.9895 21.2838C39.9868 21.1878 39.9588 21.0972 39.9335 21.0052C39.9135 20.9278 39.9042 20.8492 39.8708 20.7785C39.8402 20.7092 39.7882 20.6532 39.7428 20.5892C39.6868 20.5078 39.6362 20.4265 39.5642 20.3598C39.5522 20.3478 39.5468 20.3318 39.5335 20.3212C39.4855 20.2798 39.4268 20.2652 39.3748 20.2318C39.2948 20.1798 39.2162 20.1265 39.1255 20.0918C39.0362 20.0598 38.9482 20.0518 38.8562 20.0385C38.7922 20.0292 38.7348 19.9998 38.6668 19.9998H32.0002C31.2628 19.9998 30.6668 20.5972 30.6668 21.3332C30.6668 22.0692 31.2628 22.6665 32.0002 22.6665H35.7682L30.3868 28.9439L24.6855 25.5238C24.1215 25.1825 23.3962 25.3078 22.9748 25.8132L16.3082 33.8132C15.8375 34.3785 15.9135 35.2199 16.4788 35.6905C16.7295 35.8985 17.0308 35.9999 17.3322 35.9999C17.7148 35.9999 18.0935 35.8372 18.3575 35.5199L24.2935 28.3972L29.9802 31.8105C30.5388 32.1452 31.2562 32.0279 31.6788 31.5345L37.3335 24.9372V27.9999C37.3335 28.7359 37.9295 29.3332 38.6668 29.3332C39.4042 29.3332 40.0002 28.7359 40.0002 27.9999V21.3332C40.0002 21.3158 39.9908 21.3012 39.9895 21.2838Z" fill="white"/>
</mask>
<g mask="url(#mask0_301_853)">
<rect x="12" y="12" width="32" height="31.6364" fill="#0097FE"/>
</g>
</svg>
