<svg width="40" height="40" viewBox="0 0 40 40" fill="none" xmlns="http://www.w3.org/2000/svg">
<circle cx="20" cy="20" r="20" fill="#F6F7FE"/>
<rect x="8" y="8" width="24" height="24" rx="8" fill="#52A7E7"/>
<path d="M27.3468 16.2062C26.8233 16.4378 26.2681 16.5899 25.6997 16.6574C26.2988 16.2991 26.7473 15.7352 26.9614 15.0707C26.3991 15.4053 25.7827 15.6398 25.1401 15.7667C24.7086 15.3049 24.1365 14.9987 23.5129 14.8956C22.8893 14.7924 22.2491 14.8982 21.6919 15.1965C21.1346 15.4948 20.6915 15.9688 20.4314 16.5448C20.1714 17.1209 20.1089 17.7668 20.2538 18.382C19.1135 18.3249 17.998 18.0285 16.9797 17.5123C15.9614 16.996 15.063 16.2714 14.3429 15.3854C14.088 15.8232 13.9541 16.3209 13.9548 16.8275C13.9548 17.8218 14.4608 18.7002 15.2302 19.2145C14.7749 19.2001 14.3296 19.0772 13.9315 18.8558L13.9315 18.8915C13.9316 19.5537 14.1608 20.1955 14.5801 20.708C14.9994 21.2205 15.583 21.5723 16.232 21.7036C15.8094 21.8181 15.3662 21.835 14.936 21.753C15.119 22.323 15.4757 22.8215 15.9561 23.1786C16.4365 23.5358 17.0166 23.7339 17.6151 23.745C17.0203 24.2122 16.3391 24.5575 15.6107 24.7613C14.8823 24.9651 14.1208 25.0233 13.3699 24.9326C14.6808 25.7757 16.2067 26.2232 17.7653 26.2218C23.0405 26.2218 25.9253 21.8517 25.9253 18.0618C25.9253 17.9384 25.9219 17.8136 25.9164 17.6915C26.4779 17.2857 26.9625 16.7829 27.3475 16.2069L27.3468 16.2062Z" fill="white"/>
</svg>
