<svg width="39" height="44" viewBox="0 0 39 44" fill="none" xmlns="http://www.w3.org/2000/svg">
<path d="M33.8807 22C30.3263 25.9713 25.1609 28.4706 19.4118 28.4706C13.6627 28.4706 8.4973 25.9713 4.94287 22C8.4973 18.0287 13.6627 15.5294 19.4118 15.5294C25.1609 15.5294 30.3263 18.0287 33.8807 22Z" fill="white"/>
<path fill-rule="evenodd" clip-rule="evenodd" d="M0 34.9412C0 24.2204 8.69094 15.5294 19.4118 15.5294C13.6626 15.5294 8.4973 18.0287 4.94288 22C8.4973 25.9713 13.6627 28.4706 19.4118 28.4706C25.1609 28.4706 30.3263 25.9713 33.8807 22C36.9545 25.4343 38.8235 29.9695 38.8235 34.9412V42.2745C38.8235 43.2275 38.051 44 37.098 44H1.72549C0.772528 44 0 43.2275 0 42.2745V34.9412ZM33.8807 22C33.8807 22 33.8807 22 33.8807 22V22Z" fill="#CDD0D8"/>
<path fill-rule="evenodd" clip-rule="evenodd" d="M12.1306 27.0589C9.3589 25.9366 6.90535 24.1926 4.94288 22C8.4973 18.0287 13.6627 15.5294 19.4118 15.5294C25.1609 15.5294 30.3263 18.0287 33.8807 22C33.8807 22 33.8807 22 33.8807 22C36.9545 18.5657 38.8235 14.0305 38.8235 9.05883V1.72549C38.8235 0.772532 38.051 3.24321e-06 37.098 3.24321e-06L1.72549 0C0.772529 -8.33101e-08 7.24411e-07 0.772529 6.41101e-07 1.72549L0 9.05882C-1.28944e-06 17.2047 5.01754 24.1788 12.1306 27.0589Z" fill="#CDD0D8"/>
</svg>
