<svg width="88" height="28" viewBox="0 0 88 28" fill="none" xmlns="http://www.w3.org/2000/svg">
<path d="M3.2921 17.424H9.8721V20H0.100098V0.540009H3.2921V17.424Z" fill="#CDD0D8"/>
<path d="M11.4775 12.216C11.4775 10.6667 11.7948 9.29467 12.4295 8.10001C13.0828 6.90534 13.9602 5.98134 15.0615 5.32801C16.1815 4.65601 17.4135 4.32001 18.7575 4.32001C19.9708 4.32001 21.0255 4.56268 21.9215 5.04801C22.8362 5.51468 23.5642 6.10268 24.1055 6.81201V4.57201H27.3255V20H24.1055V17.704C23.5642 18.432 22.8268 19.0387 21.8935 19.524C20.9602 20.0093 19.8962 20.252 18.7015 20.252C17.3762 20.252 16.1628 19.916 15.0615 19.244C13.9602 18.5533 13.0828 17.6013 12.4295 16.388C11.7948 15.156 11.4775 13.7653 11.4775 12.216ZM24.1055 12.272C24.1055 11.208 23.8815 10.284 23.4335 9.50001C23.0042 8.71601 22.4348 8.11868 21.7255 7.70801C21.0162 7.29734 20.2508 7.09201 19.4295 7.09201C18.6082 7.09201 17.8428 7.29734 17.1335 7.70801C16.4242 8.10001 15.8455 8.68801 15.3975 9.47201C14.9682 10.2373 14.7535 11.152 14.7535 12.216C14.7535 13.28 14.9682 14.2133 15.3975 15.016C15.8455 15.8187 16.4242 16.4347 17.1335 16.864C17.8615 17.2747 18.6268 17.48 19.4295 17.48C20.2508 17.48 21.0162 17.2747 21.7255 16.864C22.4348 16.4533 23.0042 15.856 23.4335 15.072C23.8815 14.2693 24.1055 13.336 24.1055 12.272Z" fill="#CDD0D8"/>
<path d="M45.4061 4.57201L35.9421 27.252H32.6381L35.7741 19.748L29.6981 4.57201H33.2541L37.5941 16.332L42.1021 4.57201H45.4061Z" fill="#CDD0D8"/>
<path d="M61.9549 11.908C61.9549 12.4867 61.9176 13.0093 61.8429 13.476H50.0549C50.1483 14.708 50.6056 15.6973 51.4269 16.444C52.2483 17.1907 53.2563 17.564 54.4509 17.564C56.1683 17.564 57.3816 16.8453 58.0909 15.408H61.5349C61.0683 16.8267 60.2189 17.9933 58.9869 18.908C57.7736 19.804 56.2616 20.252 54.4509 20.252C52.9763 20.252 51.6509 19.9253 50.4749 19.272C49.3176 18.6 48.4029 17.6667 47.7309 16.472C47.0776 15.2587 46.7509 13.8587 46.7509 12.272C46.7509 10.6853 47.0683 9.29467 47.7029 8.10001C48.3563 6.88668 49.2616 5.95334 50.4189 5.30001C51.5949 4.64668 52.9389 4.32001 54.4509 4.32001C55.9069 4.32001 57.2043 4.63734 58.3429 5.27201C59.4816 5.90668 60.3683 6.80268 61.0029 7.96001C61.6376 9.09868 61.9549 10.4147 61.9549 11.908ZM58.6229 10.9C58.6043 9.72401 58.1843 8.78134 57.3629 8.07201C56.5416 7.36268 55.5243 7.00801 54.3109 7.00801C53.2096 7.00801 52.2669 7.36268 51.4829 8.07201C50.6989 8.76268 50.2323 9.70534 50.0829 10.9H58.6229Z" fill="#CDD0D8"/>
<path d="M68.2882 6.81201C68.7548 6.02801 69.3708 5.42134 70.1362 4.99201C70.9202 4.54401 71.8442 4.32001 72.9082 4.32001V7.62401H72.0962C70.8455 7.62401 69.8935 7.94134 69.2402 8.57601C68.6055 9.21068 68.2882 10.312 68.2882 11.88V20H65.0962V4.57201H68.2882V6.81201Z" fill="#CDD0D8"/>
<path d="M81.4423 20.252C80.2289 20.252 79.1369 20.0373 78.1663 19.608C77.2143 19.16 76.4583 18.5627 75.8983 17.816C75.3383 17.0507 75.0396 16.2013 75.0023 15.268H78.3063C78.3623 15.9213 78.6703 16.472 79.2303 16.92C79.8089 17.3493 80.5276 17.564 81.3863 17.564C82.2823 17.564 82.9729 17.396 83.4583 17.06C83.9623 16.7053 84.2143 16.2573 84.2143 15.716C84.2143 15.1373 83.9343 14.708 83.3743 14.428C82.8329 14.148 81.9649 13.84 80.7703 13.504C79.6129 13.1867 78.6703 12.8787 77.9423 12.58C77.2143 12.2813 76.5796 11.824 76.0383 11.208C75.5156 10.592 75.2543 9.78001 75.2543 8.77201C75.2543 7.95068 75.4969 7.20401 75.9823 6.53201C76.4676 5.84134 77.1583 5.30001 78.0543 4.90801C78.9689 4.51601 80.0143 4.32001 81.1903 4.32001C82.9449 4.32001 84.3543 4.76801 85.4183 5.66401C86.5009 6.54134 87.0796 7.74534 87.1543 9.27601H83.9623C83.9063 8.58534 83.6263 8.03468 83.1223 7.62401C82.6183 7.21334 81.9369 7.00801 81.0783 7.00801C80.2383 7.00801 79.5943 7.16668 79.1463 7.48401C78.6983 7.80134 78.4743 8.22134 78.4743 8.74401C78.4743 9.15467 78.6236 9.50001 78.9223 9.78001C79.2209 10.06 79.5849 10.284 80.0143 10.452C80.4436 10.6013 81.0783 10.7973 81.9183 11.04C83.0383 11.3387 83.9529 11.6467 84.6623 11.964C85.3903 12.2627 86.0156 12.7107 86.5383 13.308C87.0609 13.9053 87.3316 14.6987 87.3503 15.688C87.3503 16.5653 87.1076 17.3493 86.6223 18.04C86.1369 18.7307 85.4463 19.272 84.5503 19.664C83.6729 20.056 82.6369 20.252 81.4423 20.252Z" fill="#CDD0D8"/>
</svg>
