<svg width="167" height="22" viewBox="0 0 167 22" fill="none" xmlns="http://www.w3.org/2000/svg">
<path d="M10.34 21.28C8.28663 21.28 6.52263 20.8693 5.04796 20.048C3.59196 19.208 2.47196 18.032 1.68796 16.52C0.903963 14.9893 0.511963 13.188 0.511963 11.116C0.511963 9.04401 0.903963 7.25201 1.68796 5.74001C2.47196 4.22801 3.59196 3.06134 5.04796 2.24001C6.52263 1.40001 8.28663 0.980011 10.34 0.980011C11.6653 0.980011 12.916 1.18534 14.092 1.59601C15.2866 2.00668 16.2666 2.59468 17.032 3.36001L15.856 6.21601C15.016 5.50668 14.1573 4.99334 13.28 4.67601C12.4026 4.34001 11.46 4.17201 10.452 4.17201C8.45463 4.17201 6.9333 4.77868 5.88796 5.99201C4.84263 7.18668 4.31996 8.89468 4.31996 11.116C4.31996 13.3373 4.84263 15.0547 5.88796 16.268C6.9333 17.4813 8.45463 18.088 10.452 18.088C11.46 18.088 12.4026 17.9293 13.28 17.612C14.1573 17.276 15.016 16.7533 15.856 16.044L17.032 18.9C16.2666 19.6467 15.2866 20.2347 14.092 20.664C12.916 21.0747 11.6653 21.28 10.34 21.28Z" fill="#CDD0D8"/>
<path d="M25.0835 21.28C23.6648 21.28 22.4328 20.9907 21.3875 20.412C20.3422 19.8333 19.5302 19.012 18.9515 17.948C18.3728 16.8653 18.0835 15.596 18.0835 14.14C18.0835 12.684 18.3728 11.424 18.9515 10.36C19.5302 9.29601 20.3422 8.47468 21.3875 7.89601C22.4328 7.31734 23.6648 7.02801 25.0835 7.02801C26.5022 7.02801 27.7342 7.31734 28.7795 7.89601C29.8248 8.47468 30.6368 9.29601 31.2155 10.36C31.7942 11.424 32.0835 12.684 32.0835 14.14C32.0835 15.596 31.7942 16.8653 31.2155 17.948C30.6368 19.012 29.8248 19.8333 28.7795 20.412C27.7342 20.9907 26.5022 21.28 25.0835 21.28ZM25.0835 18.62C26.1288 18.62 26.9688 18.2467 27.6035 17.5C28.2382 16.7347 28.5555 15.6147 28.5555 14.14C28.5555 12.6467 28.2382 11.536 27.6035 10.808C26.9688 10.0613 26.1288 9.68801 25.0835 9.68801C24.0382 9.68801 23.1982 10.0613 22.5635 10.808C21.9288 11.536 21.6115 12.6467 21.6115 14.14C21.6115 15.6147 21.9288 16.7347 22.5635 17.5C23.1982 18.2467 24.0382 18.62 25.0835 18.62Z" fill="#CDD0D8"/>
<path d="M35.0283 21V7.30801H38.4443V9.40801C38.855 8.66134 39.4243 8.08268 40.1523 7.67201C40.8803 7.24268 41.7203 7.02801 42.6723 7.02801C44.7256 7.02801 46.0696 7.92401 46.7043 9.71601C47.1336 8.87601 47.7496 8.22268 48.5523 7.75601C49.355 7.27068 50.2696 7.02801 51.2963 7.02801C54.3763 7.02801 55.9163 8.90401 55.9163 12.656V21H52.4163V12.796C52.4163 11.7507 52.239 10.9853 51.8843 10.5C51.5483 10.0147 50.9696 9.77201 50.1483 9.77201C49.2336 9.77201 48.515 10.0987 47.9923 10.752C47.4696 11.3867 47.2083 12.2733 47.2083 13.412V21H43.7083V12.796C43.7083 11.7507 43.531 10.9853 43.1763 10.5C42.8403 10.0147 42.271 9.77201 41.4683 9.77201C40.5536 9.77201 39.835 10.0987 39.3123 10.752C38.7896 11.3867 38.5283 12.2733 38.5283 13.412V21H35.0283Z" fill="#CDD0D8"/>
<path d="M59.583 21V7.30801H62.999V9.40801C63.4097 8.66134 63.979 8.08268 64.707 7.67201C65.435 7.24268 66.275 7.02801 67.227 7.02801C69.2803 7.02801 70.6243 7.92401 71.259 9.71601C71.6883 8.87601 72.3043 8.22268 73.107 7.75601C73.9097 7.27068 74.8243 7.02801 75.851 7.02801C78.931 7.02801 80.471 8.90401 80.471 12.656V21H76.971V12.796C76.971 11.7507 76.7937 10.9853 76.439 10.5C76.103 10.0147 75.5243 9.77201 74.703 9.77201C73.7883 9.77201 73.0697 10.0987 72.547 10.752C72.0243 11.3867 71.763 12.2733 71.763 13.412V21H68.263V12.796C68.263 11.7507 68.0857 10.9853 67.731 10.5C67.395 10.0147 66.8257 9.77201 66.023 9.77201C65.1083 9.77201 64.3897 10.0987 63.867 10.752C63.3443 11.3867 63.083 12.2733 63.083 13.412V21H59.583Z" fill="#CDD0D8"/>
<path d="M88.5897 21.28C87.6003 21.28 86.7137 21.0933 85.9297 20.72C85.1643 20.328 84.5577 19.8053 84.1097 19.152C83.6803 18.4987 83.4657 17.7613 83.4657 16.94C83.4657 15.932 83.727 15.1387 84.2497 14.56C84.7723 13.9627 85.6217 13.5333 86.7977 13.272C87.9737 13.0107 89.551 12.88 91.5297 12.88H92.5097V12.292C92.5097 11.3587 92.3043 10.6867 91.8937 10.276C91.483 9.86534 90.7923 9.66001 89.8217 9.66001C89.0563 9.66001 88.2723 9.78134 87.4697 10.024C86.667 10.248 85.855 10.6027 85.0337 11.088L84.0257 8.70801C84.511 8.37201 85.0803 8.08268 85.7337 7.84001C86.4057 7.57868 87.1057 7.38268 87.8337 7.25201C88.5803 7.10268 89.2803 7.02801 89.9337 7.02801C91.931 7.02801 93.415 7.49468 94.3857 8.42801C95.3563 9.34268 95.8417 10.7707 95.8417 12.712V21H92.5657V18.816C92.2483 19.5813 91.7443 20.188 91.0537 20.636C90.363 21.0653 89.5417 21.28 88.5897 21.28ZM89.3177 18.872C90.2323 18.872 90.9883 18.5547 91.5857 17.92C92.2017 17.2853 92.5097 16.4827 92.5097 15.512V14.896H91.5577C89.803 14.896 88.5803 15.036 87.8897 15.316C87.2177 15.5773 86.8817 16.0627 86.8817 16.772C86.8817 17.388 87.0963 17.892 87.5257 18.284C87.955 18.676 88.5523 18.872 89.3177 18.872Z" fill="#CDD0D8"/>
<path d="M99.3942 21V7.30801H102.81V9.43601C103.277 8.65201 103.902 8.05468 104.686 7.64401C105.489 7.23334 106.385 7.02801 107.374 7.02801C110.604 7.02801 112.218 8.90401 112.218 12.656V21H108.718V12.824C108.718 11.76 108.513 10.9853 108.102 10.5C107.71 10.0147 107.094 9.77201 106.254 9.77201C105.228 9.77201 104.406 10.0987 103.79 10.752C103.193 11.3867 102.894 12.236 102.894 13.3V21H99.3942Z" fill="#CDD0D8"/>
<path d="M121.037 21.28C119.842 21.28 118.788 20.9907 117.873 20.412C116.977 19.8333 116.277 19.012 115.773 17.948C115.269 16.8653 115.017 15.596 115.017 14.14C115.017 12.6653 115.269 11.4053 115.773 10.36C116.277 9.29601 116.977 8.47468 117.873 7.89601C118.788 7.31734 119.842 7.02801 121.037 7.02801C122.008 7.02801 122.885 7.24268 123.669 7.67201C124.453 8.10134 125.041 8.67068 125.433 9.38001V1.26001H128.933V21H125.517V18.732C125.144 19.516 124.556 20.1413 123.753 20.608C122.95 21.056 122.045 21.28 121.037 21.28ZM122.017 18.62C123.062 18.62 123.902 18.2467 124.537 17.5C125.172 16.7347 125.489 15.6147 125.489 14.14C125.489 12.6467 125.172 11.536 124.537 10.808C123.902 10.0613 123.062 9.68801 122.017 9.68801C120.972 9.68801 120.132 10.0613 119.497 10.808C118.862 11.536 118.545 12.6467 118.545 14.14C118.545 15.6147 118.862 16.7347 119.497 17.5C120.132 18.2467 120.972 18.62 122.017 18.62Z" fill="#CDD0D8"/>
<path d="M137.854 19.88V14.196H132.31V11.732H137.854V6.21601H140.43V11.732H145.974V14.196H140.43V19.88H137.854Z" fill="#CDD0D8"/>
<path d="M149.687 21V1.26001H158.255C160.421 1.26001 162.091 1.78268 163.267 2.82801C164.443 3.85468 165.031 5.30134 165.031 7.16801C165.031 8.64268 164.649 9.86534 163.883 10.836C163.118 11.788 162.017 12.432 160.579 12.768C161.531 13.0667 162.315 13.7853 162.931 14.924L166.235 21H162.287L158.871 14.7C158.535 14.084 158.134 13.664 157.667 13.44C157.219 13.216 156.641 13.104 155.931 13.104H153.271V21H149.687ZM153.271 10.444H157.639C160.253 10.444 161.559 9.38001 161.559 7.25201C161.559 5.14268 160.253 4.08801 157.639 4.08801H153.271V10.444Z" fill="#CDD0D8"/>
</svg>
