<svg width="142" height="29" viewBox="0 0 142 29" fill="none" xmlns="http://www.w3.org/2000/svg">
<path d="M17.1441 1.45603V21H13.2241V12.684H4.85213V21H0.932129V1.45603H4.85213V9.49203H13.2241V1.45603H17.1441Z" fill="#CDD0D8"/>
<path d="M27.8904 21.252C26.3971 21.252 25.0531 20.9254 23.8584 20.272C22.6638 19.6 21.7211 18.6574 21.0304 17.444C20.3584 16.2307 20.0224 14.8307 20.0224 13.244C20.0224 11.6574 20.3678 10.2574 21.0584 9.04403C21.7678 7.8307 22.7291 6.89736 23.9424 6.24403C25.1558 5.57203 26.5091 5.23603 28.0024 5.23603C29.4958 5.23603 30.8491 5.57203 32.0624 6.24403C33.2758 6.89736 34.2278 7.8307 34.9184 9.04403C35.6278 10.2574 35.9824 11.6574 35.9824 13.244C35.9824 14.8307 35.6184 16.2307 34.8904 17.444C34.1811 18.6574 33.2104 19.6 31.9784 20.272C30.7651 20.9254 29.4024 21.252 27.8904 21.252ZM27.8904 17.836C28.5998 17.836 29.2624 17.668 29.8784 17.332C30.5131 16.9774 31.0171 16.4547 31.3904 15.764C31.7638 15.0734 31.9504 14.2334 31.9504 13.244C31.9504 11.7694 31.5584 10.64 30.7744 9.85603C30.0091 9.05336 29.0664 8.65203 27.9464 8.65203C26.8264 8.65203 25.8838 9.05336 25.1184 9.85603C24.3718 10.64 23.9984 11.7694 23.9984 13.244C23.9984 14.7187 24.3624 15.8574 25.0904 16.66C25.8371 17.444 26.7704 17.836 27.8904 17.836Z" fill="#CDD0D8"/>
<path d="M53.5019 5.48803V21H49.5539V19.04C49.0499 19.712 48.3872 20.244 47.5659 20.636C46.7632 21.0094 45.8859 21.196 44.9339 21.196C43.7206 21.196 42.6472 20.944 41.7139 20.44C40.7806 19.9174 40.0432 19.1614 39.5019 18.172C38.9792 17.164 38.7179 15.9694 38.7179 14.588V5.48803H42.6379V14.028C42.6379 15.26 42.9459 16.212 43.5619 16.884C44.1779 17.5374 45.0179 17.864 46.0819 17.864C47.1646 17.864 48.0139 17.5374 48.6299 16.884C49.2459 16.212 49.5539 15.26 49.5539 14.028V5.48803H53.5019Z" fill="#CDD0D8"/>
<path d="M61.2896 7.89603C61.7936 7.0747 62.4469 6.4307 63.2496 5.96403C64.0709 5.49736 65.0043 5.26403 66.0496 5.26403V9.38003H65.0136C63.7816 9.38003 62.8483 9.66936 62.2136 10.248C61.5976 10.8267 61.2896 11.8347 61.2896 13.272V21H57.3696V5.48803H61.2896V7.89603Z" fill="#CDD0D8"/>
<path d="M74.7659 5.23603C75.9232 5.23603 76.9406 5.46936 77.8179 5.93603C78.6952 6.38403 79.3859 6.97203 79.8899 7.70003V5.48803H83.8379V21.112C83.8379 22.5494 83.5486 23.828 82.9699 24.948C82.3912 26.0867 81.5232 26.9827 80.3659 27.636C79.2086 28.308 77.8086 28.644 76.1659 28.644C73.9632 28.644 72.1526 28.1307 70.7339 27.104C69.3339 26.0774 68.5406 24.6774 68.3539 22.904H72.2459C72.4512 23.6134 72.8899 24.1734 73.5619 24.584C74.2526 25.0134 75.0832 25.228 76.0539 25.228C77.1926 25.228 78.1166 24.8827 78.8259 24.192C79.5352 23.52 79.8899 22.4934 79.8899 21.112V18.704C79.3859 19.432 78.6859 20.0387 77.7899 20.524C76.9126 21.0094 75.9046 21.252 74.7659 21.252C73.4592 21.252 72.2646 20.916 71.1819 20.244C70.0992 19.572 69.2406 18.6294 68.6059 17.416C67.9899 16.184 67.6819 14.7747 67.6819 13.188C67.6819 11.62 67.9899 10.2294 68.6059 9.01603C69.2406 7.8027 70.0899 6.86936 71.1539 6.21603C72.2366 5.5627 73.4406 5.23603 74.7659 5.23603ZM79.8899 13.244C79.8899 12.292 79.7032 11.48 79.3299 10.808C78.9566 10.1174 78.4526 9.5947 77.8179 9.24003C77.1832 8.8667 76.5019 8.68003 75.7739 8.68003C75.0459 8.68003 74.3739 8.85736 73.7579 9.21203C73.1419 9.5667 72.6379 10.0894 72.2459 10.78C71.8726 11.452 71.6859 12.2547 71.6859 13.188C71.6859 14.1214 71.8726 14.9427 72.2459 15.652C72.6379 16.3427 73.1419 16.8747 73.7579 17.248C74.3926 17.6214 75.0646 17.808 75.7739 17.808C76.5019 17.808 77.1832 17.6307 77.8179 17.276C78.4526 16.9027 78.9566 16.38 79.3299 15.708C79.7032 15.0174 79.8899 14.196 79.8899 13.244Z" fill="#CDD0D8"/>
<path d="M91.5864 0.280029V21H87.6665V0.280029H91.5864Z" fill="#CDD0D8"/>
<path d="M94.4514 13.188C94.4514 11.62 94.7594 10.2294 95.3754 9.01603C96.0101 7.8027 96.8594 6.86936 97.9234 6.21603C99.0061 5.5627 100.21 5.23603 101.535 5.23603C102.693 5.23603 103.701 5.46936 104.559 5.93603C105.437 6.4027 106.137 6.9907 106.659 7.70003V5.48803H110.607V21H106.659V18.732C106.155 19.46 105.455 20.0667 104.559 20.552C103.682 21.0187 102.665 21.252 101.507 21.252C100.201 21.252 99.0061 20.916 97.9234 20.244C96.8594 19.572 96.0101 18.6294 95.3754 17.416C94.7594 16.184 94.4514 14.7747 94.4514 13.188ZM106.659 13.244C106.659 12.292 106.473 11.48 106.099 10.808C105.726 10.1174 105.222 9.5947 104.587 9.24003C103.953 8.8667 103.271 8.68003 102.543 8.68003C101.815 8.68003 101.143 8.85736 100.527 9.21203C99.9114 9.5667 99.4074 10.0894 99.0154 10.78C98.6421 11.452 98.4554 12.2547 98.4554 13.188C98.4554 14.1214 98.6421 14.9427 99.0154 15.652C99.4074 16.3427 99.9114 16.8747 100.527 17.248C101.162 17.6214 101.834 17.808 102.543 17.808C103.271 17.808 103.953 17.6307 104.587 17.276C105.222 16.9027 105.726 16.38 106.099 15.708C106.473 15.0174 106.659 14.196 106.659 13.244Z" fill="#CDD0D8"/>
<path d="M120.372 21.252C119.103 21.252 117.964 21.028 116.956 20.58C115.948 20.1134 115.145 19.488 114.548 18.704C113.969 17.92 113.652 17.052 113.596 16.1H117.544C117.619 16.6974 117.908 17.192 118.412 17.584C118.935 17.976 119.579 18.172 120.344 18.172C121.091 18.172 121.669 18.0227 122.08 17.724C122.509 17.4254 122.724 17.0427 122.724 16.576C122.724 16.072 122.463 15.6987 121.94 15.456C121.436 15.1947 120.624 14.9147 119.504 14.616C118.347 14.336 117.395 14.0467 116.648 13.748C115.92 13.4494 115.285 12.992 114.744 12.376C114.221 11.76 113.96 10.9294 113.96 9.88403C113.96 9.02536 114.203 8.24136 114.688 7.53203C115.192 6.82269 115.901 6.26269 116.816 5.85203C117.749 5.44136 118.841 5.23603 120.092 5.23603C121.94 5.23603 123.415 5.7027 124.516 6.63603C125.617 7.5507 126.224 8.79203 126.336 10.36H122.584C122.528 9.74403 122.267 9.2587 121.8 8.90403C121.352 8.53069 120.745 8.34403 119.98 8.34403C119.271 8.34403 118.72 8.4747 118.328 8.73603C117.955 8.99736 117.768 9.36136 117.768 9.82803C117.768 10.3507 118.029 10.752 118.552 11.032C119.075 11.2934 119.887 11.564 120.988 11.844C122.108 12.124 123.032 12.4134 123.76 12.712C124.488 13.0107 125.113 13.4774 125.636 14.112C126.177 14.728 126.457 15.5494 126.476 16.576C126.476 17.472 126.224 18.2747 125.72 18.984C125.235 19.6934 124.525 20.2534 123.592 20.664C122.677 21.056 121.604 21.252 120.372 21.252Z" fill="#CDD0D8"/>
<path d="M135.63 21.252C134.36 21.252 133.222 21.028 132.214 20.58C131.206 20.1134 130.403 19.488 129.806 18.704C129.227 17.92 128.91 17.052 128.854 16.1H132.802C132.876 16.6974 133.166 17.192 133.67 17.584C134.192 17.976 134.836 18.172 135.602 18.172C136.348 18.172 136.927 18.0227 137.338 17.724C137.767 17.4254 137.982 17.0427 137.982 16.576C137.982 16.072 137.72 15.6987 137.198 15.456C136.694 15.1947 135.882 14.9147 134.762 14.616C133.604 14.336 132.652 14.0467 131.906 13.748C131.178 13.4494 130.543 12.992 130.002 12.376C129.479 11.76 129.218 10.9294 129.218 9.88403C129.218 9.02536 129.46 8.24136 129.946 7.53203C130.45 6.82269 131.159 6.26269 132.074 5.85203C133.007 5.44136 134.099 5.23603 135.35 5.23603C137.198 5.23603 138.672 5.7027 139.774 6.63603C140.875 7.5507 141.482 8.79203 141.594 10.36H137.842C137.786 9.74403 137.524 9.2587 137.058 8.90403C136.61 8.53069 136.003 8.34403 135.238 8.34403C134.528 8.34403 133.978 8.4747 133.586 8.73603C133.212 8.99736 133.026 9.36136 133.026 9.82803C133.026 10.3507 133.287 10.752 133.81 11.032C134.332 11.2934 135.144 11.564 136.246 11.844C137.366 12.124 138.29 12.4134 139.018 12.712C139.746 13.0107 140.371 13.4774 140.894 14.112C141.435 14.728 141.715 15.5494 141.734 16.576C141.734 17.472 141.482 18.2747 140.978 18.984C140.492 19.6934 139.783 20.2534 138.85 20.664C137.935 21.056 136.862 21.252 135.63 21.252Z" fill="#CDD0D8"/>
</svg>
