<svg width="126" height="22" viewBox="0 0 126 22" fill="none" xmlns="http://www.w3.org/2000/svg">
<path d="M17.2281 15.904C16.6681 17.7146 15.6881 19.068 14.2881 19.964C12.8881 20.8413 11.2548 21.28 9.38813 21.28C7.5588 21.28 5.97213 20.8973 4.62813 20.132C3.3028 19.3666 2.27613 18.2746 1.54813 16.856C0.838797 15.4373 0.484131 13.7386 0.484131 11.76C0.484131 9.78131 0.848131 8.08265 1.57613 6.66398C2.30413 5.24532 3.3308 4.15332 4.65613 3.38798C5.98146 2.62265 7.54013 2.23998 9.33213 2.23998C11.2175 2.23998 12.8321 2.64131 14.1761 3.44398C15.5388 4.22798 16.4721 5.42265 16.9761 7.02798L13.4761 8.51198C13.1588 7.39198 12.6735 6.59865 12.0201 6.13198C11.3668 5.64665 10.5268 5.40398 9.50013 5.40398C7.96946 5.40398 6.7468 5.95465 5.83213 7.05598C4.93613 8.13865 4.48813 9.70665 4.48813 11.76C4.48813 13.7946 4.91746 15.3626 5.77613 16.464C6.6348 17.5653 7.87613 18.116 9.50013 18.116C10.5081 18.116 11.3761 17.8453 12.1041 17.304C12.8508 16.7627 13.3735 15.9413 13.6721 14.84L17.2281 15.904Z" fill="#CDD0D8"/>
<path d="M22.0614 4.98398C20.4747 4.98398 19.6814 4.30265 19.6814 2.93998C19.6814 1.55865 20.4747 0.867981 22.0614 0.867981C23.6481 0.867981 24.4414 1.55865 24.4414 2.93998C24.4414 4.30265 23.6481 4.98398 22.0614 4.98398ZM23.9654 6.99998V21H20.1294V6.99998H23.9654Z" fill="#CDD0D8"/>
<path d="M28.0318 21V6.99998H31.3637L31.6157 9.74398C31.9704 8.79198 32.5024 8.05465 33.2117 7.53198C33.9397 6.99065 34.8544 6.71998 35.9557 6.71998C36.6091 6.71998 37.1131 6.82265 37.4677 7.02798L37.0197 10.248C36.8331 10.192 36.5997 10.1453 36.3197 10.108C36.0584 10.052 35.7131 10.024 35.2837 10.024C34.7051 10.024 34.1544 10.164 33.6317 10.444C33.1277 10.7053 32.7077 11.116 32.3717 11.676C32.0357 12.2173 31.8678 12.908 31.8678 13.748V21H28.0318Z" fill="#CDD0D8"/>
<path d="M45.9268 6.71998C47.7935 6.71998 49.2401 7.12131 50.2668 7.92398C51.3121 8.72665 52.0028 9.69731 52.3388 10.836L48.7548 12.124C48.3815 10.4253 47.4575 9.57598 45.9828 9.57598C44.9188 9.57598 44.0881 9.94931 43.4908 10.696C42.9121 11.4426 42.6228 12.5533 42.6228 14.028C42.6228 15.5213 42.9215 16.632 43.5188 17.36C44.1348 18.0693 44.9655 18.424 46.0108 18.424C47.6348 18.424 48.6055 17.5933 48.9228 15.932L52.3948 17.052C52.0775 18.3027 51.3681 19.32 50.2668 20.104C49.1841 20.888 47.7748 21.28 46.0388 21.28C44.5828 21.28 43.3041 20.9907 42.2028 20.412C41.1201 19.8333 40.2801 19.0026 39.6828 17.92C39.0855 16.8373 38.7868 15.5306 38.7868 14C38.7868 12.4693 39.0855 11.1626 39.6828 10.08C40.2988 8.99732 41.1388 8.16665 42.2028 7.58798C43.2855 7.00931 44.5268 6.71998 45.9268 6.71998Z" fill="#CDD0D8"/>
<path d="M61.7595 6.71998C63.1595 6.71998 64.4008 7.00931 65.4835 7.58798C66.5662 8.16665 67.4062 8.99732 68.0035 10.08C68.6195 11.1626 68.9275 12.4693 68.9275 14C68.9275 15.5306 68.6195 16.8373 68.0035 17.92C67.4062 19.0026 66.5662 19.8333 65.4835 20.412C64.4008 20.9907 63.1595 21.28 61.7595 21.28C60.3408 21.28 59.0902 20.9907 58.0075 20.412C56.9435 19.8333 56.1035 19.0026 55.4875 17.92C54.8902 16.8373 54.5915 15.5306 54.5915 14C54.5915 12.4693 54.8902 11.1626 55.4875 10.08C56.1035 8.99732 56.9435 8.16665 58.0075 7.58798C59.0902 7.00931 60.3408 6.71998 61.7595 6.71998ZM61.7595 9.57598C60.7142 9.57598 59.8928 9.94931 59.2955 10.696C58.7168 11.424 58.4275 12.5253 58.4275 14C58.4275 15.4746 58.7168 16.5853 59.2955 17.332C59.8928 18.06 60.7142 18.424 61.7595 18.424C62.7862 18.424 63.5888 18.06 64.1675 17.332C64.7648 16.5853 65.0635 15.4746 65.0635 14C65.0635 12.5253 64.7648 11.424 64.1675 10.696C63.5888 9.94931 62.7862 9.57598 61.7595 9.57598Z" fill="#CDD0D8"/>
<path d="M78.5212 6.71998C79.9212 6.71998 81.1625 7.00931 82.2452 7.58798C83.3279 8.16665 84.1679 8.99732 84.7652 10.08C85.3812 11.1626 85.6892 12.4693 85.6892 14C85.6892 15.5306 85.3812 16.8373 84.7652 17.92C84.1679 19.0026 83.3279 19.8333 82.2452 20.412C81.1625 20.9907 79.9212 21.28 78.5212 21.28C77.1025 21.28 75.8519 20.9907 74.7692 20.412C73.7052 19.8333 72.8652 19.0026 72.2492 17.92C71.6519 16.8373 71.3532 15.5306 71.3532 14C71.3532 12.4693 71.6519 11.1626 72.2492 10.08C72.8652 8.99732 73.7052 8.16665 74.7692 7.58798C75.8519 7.00931 77.1025 6.71998 78.5212 6.71998ZM78.5212 9.57598C77.4759 9.57598 76.6545 9.94931 76.0572 10.696C75.4785 11.424 75.1892 12.5253 75.1892 14C75.1892 15.4746 75.4785 16.5853 76.0572 17.332C76.6545 18.06 77.4759 18.424 78.5212 18.424C79.5479 18.424 80.3505 18.06 80.9292 17.332C81.5265 16.5853 81.8252 15.4746 81.8252 14C81.8252 12.5253 81.5265 11.424 80.9292 10.696C80.3505 9.94931 79.5479 9.57598 78.5212 9.57598Z" fill="#CDD0D8"/>
<path d="M92.6789 0.867981V16.688C92.6789 17.3413 92.7909 17.7986 93.0149 18.06C93.2389 18.3213 93.6123 18.452 94.1349 18.452C94.4523 18.452 94.7136 18.4333 94.9189 18.396C95.1243 18.3587 95.3856 18.284 95.7029 18.172L95.3669 20.692C95.0496 20.8786 94.6483 21.0186 94.1629 21.112C93.6963 21.224 93.2296 21.28 92.7629 21.28C91.4003 21.28 90.4016 20.9533 89.7669 20.3C89.1509 19.628 88.8429 18.564 88.8429 17.108V0.867981H92.6789Z" fill="#CDD0D8"/>
<path d="M104.336 21.28C102.134 21.28 100.37 20.6453 99.0443 19.376C97.719 18.088 97.0563 16.296 97.0563 14C97.0563 12.4693 97.355 11.1626 97.9523 10.08C98.5497 8.99732 99.3803 8.16665 100.444 7.58798C101.527 7.00931 102.759 6.71998 104.14 6.71998C105.559 6.71998 106.763 7.00931 107.752 7.58798C108.742 8.14798 109.498 8.92265 110.02 9.91198C110.543 10.8826 110.804 11.9933 110.804 13.244C110.804 13.6173 110.795 13.972 110.776 14.308C110.758 14.644 110.73 14.9426 110.692 15.204H100.808C100.958 16.2866 101.331 17.0986 101.928 17.64C102.544 18.1626 103.338 18.424 104.308 18.424C105.13 18.424 105.792 18.2653 106.296 17.948C106.8 17.6306 107.192 17.192 107.472 16.632L110.524 17.808C110.076 18.9093 109.292 19.768 108.172 20.384C107.052 20.9813 105.774 21.28 104.336 21.28ZM104.112 9.54798C102.302 9.54798 101.21 10.5466 100.836 12.544H107.136C107.024 11.5733 106.707 10.836 106.184 10.332C105.68 9.80931 104.99 9.54798 104.112 9.54798Z" fill="#CDD0D8"/>
<path d="M119.655 21.28C118.236 21.28 116.939 21.028 115.763 20.524C114.606 20.02 113.663 19.3106 112.935 18.396L115.147 16.156C115.595 16.828 116.192 17.3787 116.939 17.808C117.686 18.2373 118.572 18.452 119.599 18.452C120.327 18.452 120.906 18.3493 121.335 18.144C121.783 17.92 122.007 17.5746 122.007 17.108C122.007 16.8093 121.905 16.5573 121.699 16.352C121.494 16.128 121.083 15.9506 120.467 15.82L118.003 15.316C116.379 14.98 115.222 14.476 114.531 13.804C113.859 13.1133 113.523 12.2266 113.523 11.144C113.523 10.3786 113.747 9.65998 114.195 8.98798C114.662 8.31598 115.352 7.77465 116.267 7.36398C117.182 6.93465 118.32 6.71998 119.683 6.71998C122.52 6.71998 124.555 7.58798 125.787 9.32398L123.491 11.564C123.08 10.9106 122.539 10.416 121.867 10.08C121.214 9.72532 120.523 9.54798 119.795 9.54798C118.152 9.54798 117.331 10.0053 117.331 10.92C117.331 11.2186 117.462 11.48 117.723 11.704C117.984 11.9093 118.46 12.0866 119.151 12.236L122.007 12.824C123.388 13.104 124.378 13.58 124.975 14.252C125.572 14.9053 125.871 15.6986 125.871 16.632C125.871 17.976 125.33 19.0867 124.247 19.964C123.183 20.8413 121.652 21.28 119.655 21.28Z" fill="#CDD0D8"/>
</svg>
