<svg width="28" height="28" viewBox="0 0 28 28" fill="none" xmlns="http://www.w3.org/2000/svg">
<g clip-path="url(#clip0_301_1074)">
<path d="M7.54156 11.5676C6.31907 11.5676 5.31885 12.5678 5.31885 13.7903C5.31885 15.0128 6.31907 16.013 7.54156 16.013C8.76404 16.013 9.76426 15.0128 9.76426 13.7903C9.76426 12.5678 8.76404 11.5676 7.54156 11.5676ZM20.8778 11.5676C19.6553 11.5676 18.6551 12.5678 18.6551 13.7903C18.6551 15.0128 19.6553 16.013 20.8778 16.013C22.1003 16.013 23.1005 15.0128 23.1005 13.7903C23.1005 12.5678 22.1003 11.5676 20.8778 11.5676ZM14.2097 11.5676C12.9872 11.5676 11.987 12.5678 11.987 13.7903C11.987 15.0128 12.9872 16.013 14.2097 16.013C15.4322 16.013 16.4324 15.0128 16.4324 13.7903C16.4324 12.5678 15.4322 11.5676 14.2097 11.5676Z" fill="white"/>
</g>
<defs>
<clipPath id="clip0_301_1074">
<rect width="26.6725" height="26.6725" fill="white" transform="translate(0.873535 0.454102)"/>
</clipPath>
</defs>
</svg>
